<svg height="512" viewBox="0 0 48 56" width="512" xmlns="http://www.w3.org/2000/svg"><g id="Page-1" fill="none" fill-rule="evenodd"><g id="021---Designer" fill="rgb(0,0,0)" fill-rule="nonzero"><path id="Shape" d="m37.407 21.45c.112-.271.226-.543.331-.812.245-.621.473-1.243.682-1.86-1-.444-2.011-.9-3.019-1.356l-1.572-.707c-.489.873-.94 1.734-1.369 2.586.11.06.218.115.33.175 1.4549406.8394296 3.0049131 1.5021209 4.617 1.974z"/><path id="Shape" d="m33.414 52-1.707 1.707c-.1874927.1875494-.4418052.2929434-.707.293h-14c-.2651948-.0000566-.5195073-.1054506-.707-.293l-1.707-1.707h-14.586v2c0 1.1045695.8954305 2 2 2h44c1.1045695 0 2-.8954305 2-2v-2z"/><path id="Shape" d="m36.223 15.6c1.09.491 2.193.986 3.3 1.48 2.0482876-1.1707673 3.5526461-3.1016063 4.187-5.374.4540304-2.03013846.373402-4.1433597-.234-6.133-.1027218-.34649232-.3844039-.61060063-.7367867-.69081954-.3523827-.0802189-.7206304.03593483-.9632133.30381954-1.6221565 1.58270445-3.5020376 2.87755334-5.559 3.829-1.0390232.45956416-1.8454853 1.3232654-2.2328369 2.3913137-.3873515 1.0680483-.3220364 2.247919.1808369 3.2666863zm2.208-2.2c1.2429663-.8148001 2.1074361-2.0938552 2.4-3.551.0552285-.54952333.5454767-.95022847 1.095-.895s.9502285.54547667.895 1.095c-.3523086 2.0709595-1.5570123 3.8992361-3.321 5.04-.4650482.2728916-1.0627125.1279426-1.3510793-.3276715s-.163586-1.0578123.2820793-1.3613285z"/><path id="Shape" d="m10 32h.363l-4.146-10h-.217c-.55228475 0-1 .4477153-1 1v20h38v-20c0-.5522847-.4477153-1-1-1h-2.657c-1.4427482 3.4725338-3.1748463 6.8176442-5.178 10h3.835c.5522847 0 1 .4477153 1 1s-.4477153 1-1 1h-28c-.55228475 0-1-.4477153-1-1s.44771525-1 1-1z"/><path id="Shape" d="m25.491 4.578-1.185-4.35c-.0473957-.12451013-.1667742-.2068028-.3-.2068028s-.2526043.08229267-.3.2068028l-1.184 4.349c.4559006.25241051.963533.39710628 1.484.423.5207053-.02557552 1.0286605-.16992373 1.485-.422z"/><path id="Shape" d="m36.607 23.3c-1.6588274-.5126652-3.2563887-1.2058136-4.764-2.067-.085-.046-.168-.088-.252-.133-1.0415995 2.2199178-1.9079098 4.5179305-2.591 6.873v4.027h2.805c1.7932783-2.7894364 3.3975417-5.6959528 4.802-8.7z"/><path id="Shape" d="m15.051 47.684c.1360719-.4085428.5183926-.6841037.949-.684h16c.4306074-.0001037.8129281.2754572.949.684l.772 2.316h13.336l-3.572-5h-38.97l-3.572 5h13.336z"/><path id="Shape" d="m16.144 50.73 1.27 1.27h6.586 6.586l1.27-1.27-.577-1.73h-14.558z"/><path id="Shape" d="m24.005 12c1.3018546-.0496628 2.4541754-.8566003 2.946-2.063l-.929-3.412c-1.2690536.63326158-2.7619464.63326158-4.031 0l-.931 3.41c.4910649 1.2068622 1.6430316 2.0146079 2.945 2.065z"/><path id="Shape" d="m23 22c0-.5522847.4477153-1 1-1s1 .4477153 1 1v10h2v-4.118c0-.008 0-.014 0-.022s0-.024.005-.035l.012-14.833c-.5901918.4558465-1.279479.7662313-2.012.906v3.102c0 .5522847-.4477153 1-1 1s-1-.4477153-1-1v-3.1c-.7278466-.1395581-1.4128399-.4478051-2-.9v19h2z"/><path id="Shape" d="m19 32v-8.034l-.957-2.161-1.159-2.8-3.7 1.532c-.1212405.0497315-.250957.0755389-.382.076-.4774364.000769-.8888238-.3360718-.9822697-.8042747-.0934459-.4682028.1571173-.9371585.5982697-1.1197253l3.7-1.532-.765-1.848-1.851.767c-.1212405.0497315-.250957.0755389-.382.076-.4774364.000769-.8888238-.3360718-.9822697-.8042747-.0934459-.4682028.1571173-.9371585.5982697-1.1197253l1.852-.767-.766-1.848-3.7 1.532c-.50560795.1924291-1.07257291-.0521264-1.27958807-.5519394-.20701516-.4998131.02099057-1.0736337.51458807-1.2950606l3.7-1.532-.382-.923c-.2114267-.5098572-.7959651-.75199754-1.306-.541l-6.469 2.68c-.24510112.1015282-.43981316.2962909-.54127757.5414184s-.10136456.5205277.00027757.7655816l8.169 19.711z"/></g></g></svg>