<?xml version="1.0" encoding="iso-8859-1"?>
<!-- Generator: Adobe Illustrator 16.0.0, SVG Export Plug-In . SVG Version: 6.00 Build 0)  -->
<!DOCTYPE svg PUBLIC "-//W3C//DTD SVG 1.1//EN" "http://www.w3.org/Graphics/SVG/1.1/DTD/svg11.dtd">
<svg version="1.1" id="Capa_1" xmlns="http://www.w3.org/2000/svg" xmlns:xlink="http://www.w3.org/1999/xlink" x="0px" y="0px"
	 width="476.245px" height="476.245px" viewBox="0 0 476.245 476.245" style="enable-background:new 0 0 476.245 476.245;"
	 xml:space="preserve">
<g>
	<g>
		<path d="M395.131,179.034h12.924h6.304h25.375C426.408,78.135,339.908,0,235.431,0C128.256,0,39.962,82.214,30.222,186.882h23.98
			h7.57h19.333c4.757,0,9.169,1.331,13.078,3.467c19.39-59.522,75.336-102.685,141.24-102.685
			c64.75,0,119.815,41.709,140.109,99.621C380.531,182.208,387.465,179.034,395.131,179.034z M235.431,48.412
			c-69.477,0-130.097,37.754-162.591,93.838C98.411,77.417,161.628,31.4,235.431,31.4c73.789,0,137.006,46.011,162.581,110.833
			C365.523,86.157,304.903,48.412,235.431,48.412z"/>
		<path d="M108.592,313.202v7.71c0,13.986-10.542,25.439-24.077,27.135c34.228,46.121,89.067,76.009,150.916,76.009
			c65.281,0,122.756-33.317,156.418-83.844c-13.585-1.643-24.197-13.12-24.197-27.15v-9.397
			c-24.621,48.086-74.586,81.143-132.221,81.143C181.701,384.807,134.688,356.042,108.592,313.202z"/>
		<path d="M181.859,198.666c15.899,0,28.787,12.892,28.787,28.787c0,15.899-12.888,28.787-28.787,28.787
			c-15.901,0-28.787-12.888-28.787-28.787C153.072,211.558,165.958,198.666,181.859,198.666z"/>
		<path d="M291.763,198.666c15.901,0,28.79,12.892,28.79,28.787c0,15.899-12.889,28.787-28.79,28.787
			c-15.897,0-28.785-12.888-28.785-28.787C262.978,211.558,275.865,198.666,291.763,198.666z"/>
		<path d="M437.381,336.613c0.084-1.311,0.16-2.629,0.244-3.923h12.455c10.828,0,19.629-8.801,19.629-19.629V206.508
			c0-10.824-8.801-19.626-19.629-19.626h-9.434h-23.98h-7.582h-13.953c-7.102,0-13.265,3.827-16.715,9.484
			c-1.808,2.971-2.914,6.424-2.914,10.143v78.802v27.76c0,10.828,8.805,19.628,19.629,19.628h1.471h25.423
			c-0.064,1.294-0.141,2.621-0.2,3.923c-0.076,1.311-0.137,2.609-0.209,3.928c-2.075,37.834-5.113,79.615,14.207,111.254
			c-57.964-17.18-117.931-15.088-178.916-14.543c-41.309,0.373-81.964-2.284-121.559-14.812
			c-30.831-9.754-69.439-39.368-75.231-74.049c-0.222-1.298-0.349-2.617-0.471-3.927c-0.126-1.303-0.237-2.605-0.261-3.924h19.857
			h1.881c10.824,0,19.626-8.801,19.626-19.628v-22.362v-84.2c0-6.789-3.471-12.78-8.72-16.302
			c-3.125-2.096-6.871-3.324-10.906-3.324H61.105h-8.838H29.623h-3.46c-10.826,0-19.626,8.803-19.626,19.626v106.553
			c0,10.828,8.8,19.629,19.626,19.629h17.151c-0.014,1.318-0.014,2.629,0.048,3.923c0.064,1.318,0.202,2.625,0.336,3.928
			c5.354,50.337,66.329,84.437,111.154,95.981c99.637,25.66,204.154-10.019,301.73,31.178c9.205,3.888,17.217-9.634,7.919-13.561
			c-0.528-0.213-1.058-0.405-1.595-0.63c-0.345-1.162-0.926-2.319-2.056-3.378c-30.625-28.725-26.441-76.237-23.729-117.441
			C437.217,339.223,437.297,337.92,437.381,336.613z"/>
	</g>
</g>
<g>
</g>
<g>
</g>
<g>
</g>
<g>
</g>
<g>
</g>
<g>
</g>
<g>
</g>
<g>
</g>
<g>
</g>
<g>
</g>
<g>
</g>
<g>
</g>
<g>
</g>
<g>
</g>
<g>
</g>
</svg>
