<?xml version="1.0" encoding="iso-8859-1"?>
<!-- Generator: Adobe Illustrator 16.0.0, SVG Export Plug-In . SVG Version: 6.00 Build 0)  -->
<!DOCTYPE svg PUBLIC "-//W3C//DTD SVG 1.1//EN" "http://www.w3.org/Graphics/SVG/1.1/DTD/svg11.dtd">
<svg version="1.1" id="Capa_1" xmlns="http://www.w3.org/2000/svg" xmlns:xlink="http://www.w3.org/1999/xlink" x="0px" y="0px"
	 width="304.024px" height="304.023px" viewBox="0 0 304.024 304.023" style="enable-background:new 0 0 304.024 304.023;"
	 xml:space="preserve">
<g>
	<g>
		<path d="M104.509,31.982c-2.227-1.018-4.681-1.631-7.291-1.631c-9.67,0-14.559,13.267-17.513,24.433
			c-2.716,10.266-4.067,23.24,6.437,26.347c0,0,19.048-4.357,30.32-14.4c3.842-3.436,8.77-4.147,12.995-1.188
			c11.739,8.246,39.053,21.761,89.784,19.094c0,0,2.812-16.951,1.761-34.147C219.241,21.983,193.966,0,160.629,0
			C135.114,0,113.343,13.267,104.509,31.982z"/>
		<path d="M177.018,148.413c23.167-9.235,39.902-31.128,41.715-57.148c-4.241,0.207-8.466,0.329-12.547,0.329
			c-44.205,0-68.892-12.705-79.675-20.28c-2.281-1.603-4.857-1.232-7.203,0.847c-12.032,10.716-31.553,15.283-32.382,15.472
			l-0.986,0.223c0.531,27.817,18.124,51.4,42.732,60.835c-7.689,3.392-65.117,30.339-73.835,81.25
			c-0.096,0.896-0.313,1.792-0.394,2.667c-0.683,7.13,1.411,13.883,5.885,19.004c4.016,4.582,8.697,7.42,13.782,8.896
			c2.641,0.818,5.398,1.238,8.235,1.342v31.57c0,5.856,4.746,10.605,10.605,10.605h115.814c5.856,0,10.604-4.749,10.604-10.605
			v-31.617c0.492,0.021,0.984,0.108,1.46,0.108c8.586,0,16.55-2.936,22.856-10.139c4.489-5.126,6.576-11.868,5.894-19.004
			c0,0-0.146-1.812-0.321-2.708C240.321,177.361,181.057,150.223,177.018,148.413z M205.954,224.813
			c-3.837-2.237-7.799-4.935-11.222-7.777c-6.669-5.557-16.585-4.671-22.162,1.998c-5.561,6.659-4.691,16.56,1.963,22.132
			c9.222,7.736,20.345,14.551,31.421,18.113v10.314l-52.789,20.66l-52.786-20.66v-10.89c10.478-3.702,20.906-10.227,29.634-17.538
			c6.654-5.582,7.524-15.473,1.958-22.142c-5.566-6.665-15.488-7.55-22.155-1.999c-2.895,2.413-6.177,4.712-9.437,6.711v-33.114
			l18.527,8c0.01-0.005,0.01-0.016,0.021-0.016l34.238,14.778l52.789-22.789V224.813z"/>
	</g>
</g>
<g>
</g>
<g>
</g>
<g>
</g>
<g>
</g>
<g>
</g>
<g>
</g>
<g>
</g>
<g>
</g>
<g>
</g>
<g>
</g>
<g>
</g>
<g>
</g>
<g>
</g>
<g>
</g>
<g>
</g>
</svg>
